<svg xmlns="http://www.w3.org/2000/svg" xmlns:xlink="http://www.w3.org/1999/xlink" width="138" height="50" viewBox="0 0 138 50">
    <defs>
        <path id="a" d="M0 49.648h137.303V.089H0z"/>
    </defs>
    <g fill="none" fill-rule="evenodd">
        <path fill="#FF7900" d="M0 49.91h49.559V.353H0z"/>
        <g transform="translate(0 .263)">
            <path fill="#FFF" d="M16.897 43.4c0 .461.293.895.82.895.57 0 1.126-.237 1.681-.726v-1.634c-1.696.211-2.5.647-2.5 1.464zm2.545 1.45a4.064 4.064 0 0 1-2.282.685c-1.286 0-2.047-.856-2.047-2.004 0-1.543 1.419-2.362 4.344-2.691v-.385c0-.501-.38-.792-1.083-.792-.702 0-1.272.278-1.681.792l-1.229-.699c.644-.897 1.624-1.346 2.94-1.346 1.799 0 2.808.778 2.808 2.045 0 0-.003 4.988.001 5.001h-1.61l-.16-.606zM22.647 38.739l1.502-.208.165.819c.849-.62 1.521-.95 2.37-.95 1.418 0 2.15.751 2.15 2.243v4.803H27.02v-4.487c0-.845-.219-1.227-.877-1.227-.542 0-1.083.25-1.697.765v4.949h-1.799v-6.707zM42.217 41.091c0-.924-.527-1.465-1.39-1.465-.819 0-1.33.528-1.404 1.465h2.794zm-1.36 4.486c-2.033 0-3.248-1.306-3.248-3.576 0-2.296 1.229-3.602 3.218-3.602 1.989 0 3.173 1.267 3.173 3.51 0 .12-.014.238-.014.357h-4.592c.014 1.306.556 1.965 1.624 1.965.686 0 1.14-.277 1.564-.883l1.33.738c-.584.977-1.637 1.491-3.056 1.491zM6.1 39.907c-1.356 0-1.606 1.222-1.606 2.106 0 .884.25 2.105 1.606 2.105 1.355 0 1.606-1.22 1.606-2.105 0-.884-.251-2.106-1.606-2.106m0 5.746c-1.795 0-3.413-1.145-3.413-3.64 0-2.496 1.618-3.64 3.413-3.64 1.794 0 3.412 1.144 3.412 3.64 0 2.495-1.618 3.64-3.412 3.64M10.757 38.554h1.725v.812c.329-.438 1.142-.954 1.902-.954.073 0 .16 0 .234.013v1.703h-.088c-.79 0-1.653.121-1.93.735v4.588h-1.843v-6.897zM36.515 38.529v6.531c0 1.153-.088 3.05-3.375 3.071-1.356.008-2.613-.533-2.864-1.718l1.791-.288c.075.339.283.677 1.299.677.94 0 1.393-.45 1.393-1.529v-.802l-.026-.025c-.288.514-.727 1.003-1.78 1.003-1.607 0-2.874-1.115-2.874-3.447 0-2.306 1.305-3.597 2.772-3.6 1.375-.001 1.887.626 2.003.956l-.02-.004.149-.825h1.532zm-3.237 5.44c1.378-.01 1.493-1.41 1.493-2.325 0-1.078-.527-1.956-1.506-1.956-.652 0-1.38.477-1.38 2.03 0 .853.061 2.262 1.393 2.252zM47.684 38.217h-.376v-1.902h-.012l-.747 1.902h-.237l-.747-1.902h-.011v1.902h-.376v-2.279h.58l.681 1.731.67-1.73h.575v2.278zm-2.97-1.975h-.715v1.975h-.376v-1.975h-.713v-.304h1.803v.304z"/>
            <path fill="#000" d="M67.88 28.86c.28 0 .548-.027.803-.082.256-.054.481-.146.676-.274.194-.127.35-.3.465-.52.117-.219.174-.499.174-.84 0-.669-.189-1.147-.566-1.433-.377-.285-.876-.429-1.497-.429h-3.122v3.579h3.067zm-.164-5.532c.511 0 .931-.121 1.26-.364.329-.244.492-.64.492-1.187 0-.305-.054-.554-.163-.749a1.226 1.226 0 0 0-.439-.456 1.862 1.862 0 0 0-.63-.229 4.215 4.215 0 0 0-.74-.064h-2.683v3.05h2.903zm.365-5.276c.62 0 1.186.055 1.698.164.511.11.95.29 1.315.539.364.25.648.582.848.995.202.414.302.925.302 1.534 0 .657-.15 1.205-.448 1.643-.298.438-.74.797-1.323 1.077.803.231 1.403.636 1.798 1.214s.594 1.275.594 2.09c0 .658-.128 1.227-.384 1.708-.255.48-.6.873-1.031 1.177-.433.304-.926.53-1.48.676a6.658 6.658 0 0 1-1.706.219h-6.318V18.052h6.135zM80.588 31.088v-1.315h-.055c-.33.548-.755.944-1.278 1.187a3.77 3.77 0 0 1-1.607.365c-.694 0-1.263-.091-1.707-.273-.444-.183-.794-.442-1.05-.777-.256-.334-.435-.742-.539-1.223a7.605 7.605 0 0 1-.154-1.597v-5.806h2.592v5.33c0 .78.122 1.361.365 1.745.243.383.675.574 1.297.574.706 0 1.216-.21 1.533-.63.317-.42.474-1.11.474-2.071v-4.948h2.593v9.439h-2.464zM86.957 28.742c.115.2.264.365.447.493s.392.222.63.283c.237.06.484.091.74.091.182 0 .374-.02.575-.064.2-.042.383-.11.548-.2.163-.092.3-.213.41-.366a.962.962 0 0 0 .165-.575c0-.39-.26-.682-.777-.876-.516-.195-1.239-.39-2.163-.584a12.847 12.847 0 0 1-1.104-.302 3.783 3.783 0 0 1-.959-.456 2.222 2.222 0 0 1-.676-.712c-.17-.286-.255-.636-.255-1.05 0-.609.118-1.108.355-1.497.238-.39.551-.697.941-.922a4.12 4.12 0 0 1 1.315-.475 8.114 8.114 0 0 1 1.497-.137c.511 0 1.007.05 1.488.146.48.098.91.262 1.287.493.377.232.69.539.94.922.25.384.399.868.447 1.452h-2.464c-.037-.5-.226-.837-.566-1.014-.34-.176-.743-.264-1.205-.264-.146 0-.304.009-.475.027a1.58 1.58 0 0 0-.465.119.95.95 0 0 0-.356.265c-.098.115-.147.27-.147.465 0 .231.085.42.256.566.17.146.393.264.667.356.273.091.586.173.94.246.353.073.712.153 1.077.238.377.085.745.189 1.104.31.36.122.679.283.959.484.28.201.505.45.675.748.171.299.256.667.256 1.105 0 .62-.125 1.141-.374 1.561-.25.42-.576.758-.977 1.014-.402.255-.86.435-1.379.538a8.075 8.075 0 0 1-3.185-.009 4.235 4.235 0 0 1-1.397-.548 3.119 3.119 0 0 1-1.004-1.013c-.262-.42-.406-.946-.43-1.58h2.466c0 .28.057.52.173.722"/>
            <mask id="b" fill="#fff">
                <use xlink:href="#a"/>
            </mask>
            <path fill="#000" d="M94.388 31.088h2.592v-9.44h-2.592v9.44zm0-10.9h2.592v-2.136h-2.592v2.136zM101.201 21.649v1.314h.054c.33-.547.756-.946 1.28-1.195a3.697 3.697 0 0 1 1.605-.375c.694 0 1.263.095 1.707.283.445.189.795.45 1.05.785.256.335.435.743.54 1.224a7.61 7.61 0 0 1 .154 1.597v5.806h-2.592v-5.33c0-.78-.122-1.361-.365-1.745-.244-.383-.676-.575-1.296-.575-.707 0-1.218.21-1.535.63-.316.42-.474 1.11-.474 2.072v4.948h-2.593V21.65h2.465zM114.99 23.858c-.31-.34-.781-.511-1.414-.511-.413 0-.757.07-1.031.21a1.908 1.908 0 0 0-1.005 1.177 2.937 2.937 0 0 0-.118.621h4.217c-.122-.657-.337-1.156-.648-1.497m-2.93 4.966c.389.378.95.566 1.679.566.524 0 .974-.13 1.351-.392.378-.262.61-.539.694-.831h2.282c-.365 1.132-.925 1.941-1.68 2.428-.754.487-1.667.73-2.738.73-.742 0-1.412-.118-2.008-.355a4.19 4.19 0 0 1-1.516-1.014 4.565 4.565 0 0 1-.958-1.57 5.734 5.734 0 0 1-.338-2.009c0-.705.116-1.362.347-1.971.23-.609.56-1.135.985-1.58a4.64 4.64 0 0 1 1.525-1.05 4.896 4.896 0 0 1 1.963-.383c.804 0 1.503.155 2.1.466a4.19 4.19 0 0 1 1.469 1.25c.383.524.66 1.12.832 1.79.17.67.23 1.37.182 2.1h-6.81c.036.84.249 1.448.639 1.825M121.618 28.742c.115.2.265.365.448.493s.392.222.63.283c.237.06.484.091.74.091.181 0 .373-.02.574-.064.2-.042.384-.11.548-.2.163-.092.301-.213.41-.366a.961.961 0 0 0 .165-.575c0-.39-.26-.682-.776-.876-.517-.195-1.24-.39-2.164-.584a12.882 12.882 0 0 1-1.104-.302 3.775 3.775 0 0 1-.958-.456 2.215 2.215 0 0 1-.676-.712c-.171-.286-.255-.636-.255-1.05 0-.609.118-1.108.355-1.497.238-.39.55-.697.94-.922a4.116 4.116 0 0 1 1.315-.475 8.107 8.107 0 0 1 1.497-.137c.512 0 1.007.05 1.488.146.48.098.91.262 1.288.493.376.232.69.539.94.922.25.384.398.868.447 1.452h-2.465c-.036-.5-.225-.837-.566-1.014-.34-.176-.743-.264-1.205-.264-.146 0-.304.009-.475.027a1.582 1.582 0 0 0-.465.119.955.955 0 0 0-.356.265c-.098.115-.146.27-.146.465 0 .231.085.42.255.566.17.146.393.264.667.356.273.091.587.173.94.246.353.073.713.153 1.077.238.377.085.746.189 1.105.31.359.122.678.283.958.484.28.201.505.45.676.748.17.299.255.667.255 1.105 0 .62-.125 1.141-.374 1.561a3 3 0 0 1-.977 1.014c-.402.255-.86.435-1.378.538a8.081 8.081 0 0 1-3.186-.009 4.235 4.235 0 0 1-1.397-.548 3.123 3.123 0 0 1-1.004-1.013c-.262-.42-.405-.946-.43-1.58h2.466c0 .28.057.52.173.722M131.196 28.742c.115.2.265.365.448.493.182.128.392.222.63.283.237.06.484.091.739.091.182 0 .374-.02.575-.064.2-.042.383-.11.548-.2.163-.092.301-.213.41-.366a.961.961 0 0 0 .165-.575c0-.39-.26-.682-.776-.876-.517-.195-1.24-.39-2.164-.584a12.882 12.882 0 0 1-1.104-.302 3.775 3.775 0 0 1-.959-.456 2.215 2.215 0 0 1-.675-.712c-.171-.286-.256-.636-.256-1.05 0-.609.118-1.108.356-1.497.237-.39.55-.697.94-.922a4.117 4.117 0 0 1 1.315-.475 8.114 8.114 0 0 1 1.497-.137c.511 0 1.007.05 1.488.146.48.098.91.262 1.288.493.376.232.69.539.94.922.249.384.398.868.446 1.452h-2.464c-.037-.5-.225-.837-.566-1.014-.34-.176-.743-.264-1.205-.264-.147 0-.304.009-.475.027a1.582 1.582 0 0 0-.465.119.955.955 0 0 0-.357.265c-.097.115-.146.27-.146.465 0 .231.086.42.256.566.17.146.393.264.667.356.273.091.586.173.94.246.353.073.712.153 1.077.238.377.085.746.189 1.105.31.359.122.678.283.958.484.28.201.505.45.675.748.171.299.256.667.256 1.105 0 .62-.125 1.141-.374 1.561a3 3 0 0 1-.977 1.014c-.402.255-.86.435-1.378.538a8.081 8.081 0 0 1-3.186-.009 4.241 4.241 0 0 1-1.397-.548 3.122 3.122 0 0 1-1.004-1.013c-.262-.42-.405-.946-.43-1.58h2.466c0 .28.057.52.173.722M64.138 46.142c.157.304.368.55.629.74.262.188.569.328.922.42.354.09.718.136 1.096.136.255 0 .53-.021.82-.064.293-.042.567-.125.823-.246.255-.122.468-.29.638-.503.17-.212.257-.483.257-.812 0-.353-.113-.639-.338-.858a2.698 2.698 0 0 0-.885-.548 8.809 8.809 0 0 0-1.242-.383 34.14 34.14 0 0 1-1.406-.365 12.43 12.43 0 0 1-1.424-.447 4.86 4.86 0 0 1-1.241-.685c-.366-.28-.66-.63-.886-1.05-.226-.42-.338-.928-.338-1.524 0-.67.143-1.251.429-1.744.286-.493.66-.904 1.123-1.233a4.897 4.897 0 0 1 1.57-.73 6.69 6.69 0 0 1 1.753-.237c.68 0 1.335.076 1.962.228a4.905 4.905 0 0 1 1.671.74c.487.34.873.775 1.16 1.305.285.53.428 1.172.428 1.926h-2.775c-.025-.39-.106-.712-.246-.967a1.613 1.613 0 0 0-.557-.603 2.347 2.347 0 0 0-.795-.31 4.851 4.851 0 0 0-.976-.092c-.232 0-.463.025-.693.073a1.86 1.86 0 0 0-.63.256 1.585 1.585 0 0 0-.466.456c-.122.183-.183.414-.183.695 0 .255.049.462.146.62.098.158.29.304.575.438.287.134.682.268 1.187.402s1.165.304 1.981.511a12.6 12.6 0 0 1 1.014.265c.431.128.86.332 1.286.611.426.28.795.655 1.105 1.123.31.469.466 1.069.466 1.798 0 .597-.116 1.15-.347 1.662a3.598 3.598 0 0 1-1.032 1.323c-.456.372-1.022.661-1.698.868-.676.207-1.458.31-2.345.31a8.25 8.25 0 0 1-2.09-.264 5.27 5.27 0 0 1-1.791-.831 4.105 4.105 0 0 1-1.232-1.442c-.304-.585-.45-1.279-.439-2.082H63.9c0 .439.08.81.238 1.114M79.041 42.125c-.31-.34-.782-.511-1.415-.511-.414 0-.758.07-1.032.21A1.905 1.905 0 0 0 75.59 43a3.012 3.012 0 0 0-.119.621h4.218c-.122-.657-.338-1.156-.648-1.497m-2.93 4.966c.39.378.949.566 1.68.566.522 0 .973-.13 1.35-.392.377-.262.609-.539.694-.831h2.282c-.365 1.132-.925 1.941-1.679 2.428-.755.487-1.668.73-2.74.73-.742 0-1.411-.118-2.007-.355a4.175 4.175 0 0 1-1.516-1.014 4.545 4.545 0 0 1-.958-1.57 5.743 5.743 0 0 1-.338-2.008c0-.706.115-1.363.347-1.972.231-.609.56-1.135.986-1.58a4.633 4.633 0 0 1 1.525-1.049 4.881 4.881 0 0 1 1.962-.384c.803 0 1.503.155 2.099.466.596.31 1.087.727 1.47 1.25.384.524.66 1.12.83 1.79.171.67.232 1.37.184 2.1h-6.81c.036.84.25 1.448.638 1.825M86.011 39.916v1.753h.037a3.235 3.235 0 0 1 1.205-1.451 3.49 3.49 0 0 1 .858-.412 3.1 3.1 0 0 1 .95-.146c.17 0 .358.031.565.092v2.41a4.936 4.936 0 0 0-.438-.064 4.63 4.63 0 0 0-.493-.028c-.475 0-.876.08-1.205.237a2.089 2.089 0 0 0-.794.649c-.2.274-.344.593-.429.958a5.2 5.2 0 0 0-.128 1.187v4.254h-2.593v-9.439h2.465zM93.654 49.355l-3.231-9.439h2.72l1.99 6.445h.037l1.99-6.445h2.573l-3.195 9.44zM100.61 49.355h2.592v-9.439h-2.592v9.44zm0-10.9h2.592V36.32h-2.592v2.137zM109.398 41.614c-.413 0-.76.094-1.04.283-.28.189-.508.432-.684.73a3.153 3.153 0 0 0-.375.986 5.162 5.162 0 0 0 0 2.109c.073.353.191.673.356.958.165.287.386.521.666.703.28.183.622.274 1.023.274.62 0 1.098-.174 1.433-.52.335-.347.545-.812.63-1.397h2.501c-.17 1.254-.657 2.21-1.46 2.866-.804.658-1.832.986-3.086.986a5.162 5.162 0 0 1-1.944-.355 4.305 4.305 0 0 1-1.506-.996 4.525 4.525 0 0 1-.968-1.524 5.281 5.281 0 0 1-.347-1.945c0-.73.106-1.408.32-2.035a4.575 4.575 0 0 1 .94-1.625 4.293 4.293 0 0 1 1.515-1.068c.597-.256 1.278-.384 2.045-.384.56 0 1.098.073 1.615.22.518.146.98.368 1.388.666.408.298.74.67.995 1.113.256.445.402.971.438 1.58h-2.537c-.17-1.083-.81-1.625-1.918-1.625M120.848 42.125c-.31-.34-.782-.511-1.415-.511-.414 0-.758.07-1.032.21a1.96 1.96 0 0 0-.657.52 1.9 1.9 0 0 0-.347.657 3.012 3.012 0 0 0-.119.622h4.218c-.122-.658-.338-1.157-.648-1.498m-2.93 4.966c.39.378.949.566 1.68.566.522 0 .973-.13 1.35-.392.377-.262.609-.539.694-.831h2.282c-.365 1.132-.925 1.941-1.68 2.428-.754.487-1.667.73-2.739.73-.742 0-1.412-.118-2.007-.355a4.174 4.174 0 0 1-1.515-1.014 4.54 4.54 0 0 1-.959-1.57 5.735 5.735 0 0 1-.338-2.008c0-.706.115-1.363.347-1.972a4.62 4.62 0 0 1 .986-1.58 4.628 4.628 0 0 1 1.524-1.049 4.881 4.881 0 0 1 1.962-.384c.804 0 1.504.155 2.1.466a4.2 4.2 0 0 1 1.47 1.25c.384.524.66 1.12.831 1.79.17.67.231 1.37.183 2.1h-6.81c.036.84.249 1.448.638 1.825M127.475 47.009c.116.2.265.365.447.493.183.128.393.222.63.283.237.061.484.091.74.091.183 0 .374-.02.574-.064.202-.042.384-.11.548-.2.165-.092.301-.213.412-.365a.961.961 0 0 0 .163-.575c0-.39-.258-.683-.775-.877-.518-.195-1.239-.39-2.164-.584a12.916 12.916 0 0 1-1.105-.301 3.772 3.772 0 0 1-.958-.457 2.222 2.222 0 0 1-.676-.712c-.17-.286-.255-.636-.255-1.05 0-.609.119-1.108.356-1.497.237-.39.55-.697.94-.922.39-.225.827-.384 1.314-.475a8.12 8.12 0 0 1 1.498-.137c.51 0 1.006.05 1.487.146.482.098.91.262 1.288.493.377.232.691.54.94.923.25.383.398.867.448 1.45h-2.465c-.036-.498-.226-.836-.566-1.012-.342-.177-.743-.265-1.205-.265-.146 0-.304.009-.475.027a1.61 1.61 0 0 0-.466.119.974.974 0 0 0-.356.265c-.097.115-.145.27-.145.465 0 .231.084.42.255.566.17.146.392.265.666.356.275.092.588.174.94.246.354.074.713.153 1.078.238.377.085.745.189 1.104.31.36.122.678.283.96.484.279.201.504.45.675.748.17.3.256.667.256 1.106 0 .62-.125 1.14-.375 1.56-.25.42-.575.758-.977 1.014a4.007 4.007 0 0 1-1.378.538 8.07 8.07 0 0 1-3.187-.009 4.246 4.246 0 0 1-1.396-.548 3.13 3.13 0 0 1-1.004-1.013c-.263-.42-.405-.946-.429-1.58h2.465c0 .281.058.521.173.722" mask="url(#b)"/>
        </g>
    </g>
</svg>
