<?xml version="1.0" encoding="utf-8"?>
<!-- Generator: Adobe Illustrator 22.0.0, SVG Export Plug-In . SVG Version: 6.00 Build 0)  -->
<svg version="1.1" id="Layer_1" xmlns="http://www.w3.org/2000/svg" xmlns:xlink="http://www.w3.org/1999/xlink" x="0px" y="0px"
	 viewBox="0 0 99 200" style="enable-background:new 0 0 99 200;" xml:space="preserve">
<style type="text/css">
	.st0{filter:url(#Adobe_OpacityMaskFilter);}
	.st1{fill:#FFFFFF;}
	.st2{mask:url(#b_1_);}
	.st3{opacity:0.6;fill:url(#SVGID_1_);}
	.st4{fill:url(#SVGID_2_);}
</style>
<g transform="translate(-22)">
	<defs>
		<filter id="Adobe_OpacityMaskFilter" filterUnits="userSpaceOnUse" x="22.6" y="-144.3" width="111.9" height="417.5">
			<feColorMatrix  type="matrix" values="1 0 0 0 0  0 1 0 0 0  0 0 1 0 0  0 0 0 1 0"/>
		</filter>
	</defs>
	<mask maskUnits="userSpaceOnUse" x="22.6" y="-144.3" width="111.9" height="417.5" id="b_1_">
		<g class="st0">
			<path id="a_1_" class="st1" d="M0.5,0H117c2.2,0,4,1.8,4,4v192c0,2.2-1.8,4-4,4H0.5V0z"/>
		</g>
	</mask>
	<g class="st2">
		
			<linearGradient id="SVGID_1_" gradientUnits="userSpaceOnUse" x1="-303.4205" y1="166.6283" x2="-303.4205" y2="166.0357" gradientTransform="matrix(2.157601e-14 -352.363 -110.7505 -6.781513e-15 18494.5566 -106882.2578)">
			<stop  offset="0" style="stop-color:#EF781C"/>
			<stop  offset="1" style="stop-color:#EF781C;stop-opacity:0"/>
		</linearGradient>
		<path class="st3" d="M133.4,208.1c-31.4-0.4-113.1-32-110.7-143.6c1.8-76.1,51.2-79.7,49.7-110c-2.7-57.9,18.4-76.9,61-98.7v216"
			/>
		
			<linearGradient id="SVGID_2_" gradientUnits="userSpaceOnUse" x1="-303.7526" y1="165.443" x2="-303.2791" y2="165.4169" gradientTransform="matrix(2.556573e-14 -417.52 -86.0179 -5.267077e-15 14322.5488 -126624.8281)">
			<stop  offset="0" style="stop-color:#EF781C"/>
			<stop  offset="1" style="stop-color:#EF781C;stop-opacity:0"/>
		</linearGradient>
		<path class="st4" d="M134.1,273.3c-31.6-8.4-80.6-46-85.2-110.2c-0.3-4.6-0.4-9.3-0.3-14.1c2-67.3,33.3-79.7,46.9-120.8
			S79.9-63,119.4-110.4c19.1-22.7,14.7-33.9,14.7-33.9l-0.9,303.8"/>
	</g>
</g>
</svg>
